<svg width="80" height="80" viewBox="0 0 80 80" fill="none" xmlns="http://www.w3.org/2000/svg">
<g clip-path="url(#clip0_20_169)">
<path d="M68 0H12C5.37258 0 0 5.37258 0 12V68C0 74.6274 5.37258 80 12 80H68C74.6274 80 80 74.6274 80 68V12C80 5.37258 74.6274 0 68 0Z" fill="#37AEE2"/>
<path d="M31.0938 63.125C29.375 63.125 29.5312 62.5 29.0625 60.9375L24.0625 44.5312L62.3438 22.0312" fill="#C8DAEA"/>
<path d="M31.0938 63.125C32.1875 63.125 32.8125 62.5 33.5938 61.875L40.625 55.1562L31.875 49.8438" fill="#A9C9DD"/>
<path d="M31.875 49.8437L52.9688 65.3125C55.1563 66.7187 57.0313 65.9375 57.6563 63.125L66.25 22.8125C67.0313 19.375 64.8438 17.8125 62.5 18.9062L12.3438 38.2812C9.06251 39.5312 9.06251 41.5625 11.7188 42.3437L24.6875 46.4062L54.375 27.5C55.7813 26.7187 57.0313 27.0312 56.0938 28.125" fill="#F6FBFE"/>
</g>
<defs>
<clipPath id="clip0_20_169">
<rect width="80" height="80" fill="white"/>
</clipPath>
</defs>
</svg>
